<?xml version="1.0" standalone="no"?>
<!DOCTYPE svg PUBLIC "-//W3C//DTD SVG 20010904//EN"
 "http://www.w3.org/TR/2001/REC-SVG-20010904/DTD/svg10.dtd">
<svg version="1.0" xmlns="http://www.w3.org/2000/svg"
 viewBox="0 0 2600.000000 2600.000000"
 preserveAspectRatio="xMidYMid meet">
<metadata>
Created by potrace 1.15, written by Peter Selinger 2001-2017
</metadata>
<g transform="translate(0.000000,2600.000000) scale(0.100000,-0.100000)"
fill="#000000" stroke="none">
<path d="M11520 21153 c-253 -24 -449 -60 -656 -118 -308 -87 -441 -164 -575
-333 -115 -143 -168 -284 -176 -463 -6 -126 5 -214 39 -313 12 -34 216 -499
455 -1035 238 -536 431 -976 429 -979 -3 -2 -578 170 -1278 384 -1145 349
-1281 388 -1355 392 -196 10 -358 -98 -436 -288 -22 -55 -22 -56 -25 -764 -2
-492 1 -726 8 -763 27 -130 119 -252 233 -310 62 -31 180 -56 232 -49 22 3
494 73 1049 156 555 83 1010 149 1012 147 2 -2 -69 -62 -159 -134 -504 -405
-1017 -915 -1435 -1427 -143 -174 -387 -501 -499 -667 -570 -844 -927 -1816
-1043 -2839 -77 -675 -36 -1347 120 -1975 237 -956 727 -1781 1435 -2413 827
-739 1905 -1210 3230 -1412 498 -76 893 -103 1500 -104 705 -1 1203 41 1795
149 980 179 1871 541 2555 1039 377 274 730 617 1005 976 532 697 860 1542
966 2490 21 192 30 742 15 960 -78 1148 -462 2255 -1103 3180 -688 991 -1585
1883 -2505 2489 -259 171 -274 180 -337 225 l-56 39 19 26 c257 369 1504 2198
1520 2228 210 415 44 913 -376 1123 -116 58 -209 81 -348 87 -100 5 -134 2
-200 -15 -87 -22 -255 -83 -295 -108 -77 -47 -303 -149 -418 -188 -345 -118
-675 -170 -1072 -170 -241 -1 -343 9 -520 46 -235 49 -384 102 -885 315 -455
194 -654 267 -890 327 -142 36 -361 74 -495 86 -106 9 -398 11 -480 3z m355
-883 c332 -23 560 -90 1115 -327 173 -74 369 -156 435 -183 349 -139 696 -227
1025 -260 137 -14 515 -14 683 0 485 40 975 165 1353 344 63 30 114 52 113 48
0 -4 -305 -450 -677 -992 l-677 -985 -1618 0 -1618 0 -495 1113 c-272 611
-494 1116 -494 1121 0 10 150 52 285 80 100 20 242 39 345 44 30 2 60 4 65 5
6 1 78 -3 160 -8z m3656 -3656 c13 -14 76 -58 139 -96 887 -547 1773 -1400
2437 -2348 541 -772 864 -1657 959 -2620 24 -236 24 -692 0 -920 -73 -724
-291 -1349 -662 -1901 -277 -414 -649 -782 -1074 -1066 -699 -466 -1570 -759
-2610 -877 -568 -65 -1378 -74 -1960 -20 -1131 103 -2063 399 -2800 889 -580
386 -1007 859 -1316 1460 -230 446 -362 896 -431 1466 -27 227 -24 821 5 1067
82 672 243 1220 532 1807 202 411 402 720 745 1150 618 776 1411 1495 2106
1908 52 32 111 73 129 92 l34 35 1871 0 1872 0 24 -26z"/>
<path d="M10790 14543 c0 -5 362 -591 805 -1303 l804 -1295 -785 -3 -784 -2 0
-565 0 -565 1065 0 1065 0 0 -250 0 -250 -1065 0 -1065 0 0 -560 0 -560 1065
0 1065 0 0 -505 0 -505 713 2 712 3 3 503 2 502 1075 0 1075 0 -2 558 -3 557
-1072 3 -1073 2 0 250 0 250 1073 2 1072 3 0 560 0 560 -811 5 -810 5 828
1295 c455 712 828 1298 828 1303 0 4 -357 7 -792 7 l-793 -1 -646 -1010 c-355
-556 -650 -1012 -655 -1012 -5 0 -301 455 -659 1011 l-650 1012 -792 0 c-436
0 -793 -3 -793 -7z"/>
</g>
</svg>
